name rise30.8019peak61.5557fall86.2505.mot
datacolumns 19
datarows 32
range 9.22496600000000 9.27663200000000
endheader
time	ground_force1_vx	ground_force1_vy	ground_force1_vz	ground_force1_px	ground_force1_py	ground_force1_pz	ground_force2_vx	ground_force2_vy	ground_force2_vz	ground_force2_px	ground_force2_py	ground_force2_pz	ground_torque1_x	ground_torque1_y	ground_torque1_z	ground_torque2_x	ground_torque2_y	ground_torque2_z	
9.22496600000000	-51.26489300000000	766.96815000000004	48.49724900000000	0.02192300000000	0.00000000000000	0.10269300000000	-7.84285000000000	71.25057000000000	14.53206600000000	0.30759500000000	0.00000000000000	-0.07111100000000	0.00000000000000	14.59476900000000	0.00000000000000	0.00000000000000	7.92544500000000	0.00000000000000	
9.22663200000000	-51.13141000000000	763.83262300000001	48.23058500000000	0.02158100000000	0.00000000000000	0.10266900000000	-8.07228000000000	75.01884300000000	14.92752500000000	0.30916300000000	0.00000000000000	-0.07135900000000	0.00000000000000	14.45176200000000	0.00000000000000	0.00000000000000	8.16527700000000	0.00000000000000	
9.22829800000000	-51.00878100000000	760.62865499999998	47.94219900000000	0.02124500000000	0.00000000000000	0.10264100000000	-8.24357000000000	78.56645300000000	15.22873400000000	0.31064000000000	0.00000000000000	-0.07160700000000	0.00000000000000	14.31199100000000	0.00000000000000	0.00000000000000	8.35514400000000	0.00000000000000	
9.22996400000000	-50.89821200000000	757.35885399999995	47.63223700000000	0.02091600000000	0.00000000000000	0.10260800000000	-8.36248800000000	81.94829600000000	15.45018700000000	0.31203200000000	0.00000000000000	-0.07185700000000	0.00000000000000	14.17573800000000	0.00000000000000	0.00000000000000	8.50290900000000	0.00000000000000	
9.23163600000000	-50.80088900000000	754.02574000000004	47.30088700000000	0.02059200000000	0.00000000000000	0.10257000000000	-8.43522200000000	85.22186499999999	15.60677600000000	0.31334100000000	0.00000000000000	-0.07210900000000	0.00000000000000	14.04327000000000	0.00000000000000	0.00000000000000	8.61673400000000	0.00000000000000	
9.23330100000000	-50.71797100000000	750.63172599999996	46.94837800000000	0.02027300000000	0.00000000000000	0.10252700000000	-8.46781200000000	88.44280400000000	15.71265300000000	0.31457200000000	0.00000000000000	-0.07236300000000	0.00000000000000	13.91484600000000	0.00000000000000	0.00000000000000	8.70443700000000	0.00000000000000	
9.23496700000000	-50.65058700000000	747.17911400000003	46.57497600000000	0.01995800000000	0.00000000000000	0.10247800000000	-8.46569000000000	91.66136000000000	15.78034400000000	0.31572600000000	0.00000000000000	-0.07261900000000	0.00000000000000	13.79071000000000	0.00000000000000	0.00000000000000	8.77298100000000	0.00000000000000	
9.23663700000000	-50.59982900000000	743.67007699999999	46.18098800000000	0.01964600000000	0.00000000000000	0.10242400000000	-8.43335200000000	94.91984600000001	15.82013400000000	0.31680700000000	0.00000000000000	-0.07287800000000	0.00000000000000	13.67109400000000	0.00000000000000	0.00000000000000	8.82811800000000	0.00000000000000	
9.23830000000000	-50.56674700000000	740.10665200000005	45.76675800000000	0.01933700000000	0.00000000000000	0.10236500000000	-8.37416700000000	98.25112400000000	15.83972900000000	0.31781600000000	0.00000000000000	-0.07313900000000	0.00000000000000	13.55621500000000	0.00000000000000	0.00000000000000	8.87418400000000	0.00000000000000	
9.23997000000000	-50.55234500000000	736.49073099999998	45.33266700000000	0.01902900000000	0.00000000000000	0.10230000000000	-8.29029900000000	101.67805400000000	15.84416600000000	0.31875500000000	0.00000000000000	-0.07340400000000	0.00000000000000	13.44627600000000	0.00000000000000	0.00000000000000	8.91403300000000	0.00000000000000	
9.24163300000000	-50.55757600000000	732.82405100000005	44.87913100000000	0.01872100000000	0.00000000000000	0.10222900000000	-8.18274300000000	105.21376300000000	15.83594200000000	0.31962700000000	0.00000000000000	-0.07367100000000	0.00000000000000	13.34146500000000	0.00000000000000	0.00000000000000	8.94910200000000	0.00000000000000	
9.24329800000000	-50.58333600000000	729.10818200000006	44.40659700000000	0.01841400000000	0.00000000000000	0.10215300000000	-8.05144600000000	108.86257100000000	15.81530100000000	0.32043100000000	0.00000000000000	-0.07394200000000	0.00000000000000	13.24195600000000	0.00000000000000	0.00000000000000	8.97956100000000	0.00000000000000	
9.24496800000000	-50.63045800000000	725.34452499999998	43.91554900000000	0.01810600000000	0.00000000000000	0.10207100000000	-7.89548000000000	112.62138100000000	15.78063600000000	0.32117100000000	0.00000000000000	-0.07421500000000	0.00000000000000	13.14790200000000	0.00000000000000	0.00000000000000	9.00453500000000	0.00000000000000	
9.24663600000000	-50.69970800000000	721.53430100000003	43.40649700000000	0.01779500000000	0.00000000000000	0.10198300000000	-7.71326400000000	116.48135000000001	15.72895300000000	0.32184700000000	0.00000000000000	-0.07449200000000	0.00000000000000	13.05944500000000	0.00000000000000	0.00000000000000	9.02236500000000	0.00000000000000	
9.24830300000000	-50.79178100000000	717.67854899999998	42.87998200000000	0.01748200000000	0.00000000000000	0.10189000000000	-7.50278500000000	120.42965200000000	15.65635600000000	0.32246000000000	0.00000000000000	-0.07477200000000	0.00000000000000	12.97670500000000	0.00000000000000	0.00000000000000	9.03087700000000	0.00000000000000	
9.24996900000000	-50.90729400000000	713.77811699999995	42.33657200000000	0.01716400000000	0.00000000000000	0.10179100000000	-7.26182400000000	124.45120000000000	15.55850400000000	0.32301000000000	0.00000000000000	-0.07505400000000	0.00000000000000	12.89978700000000	0.00000000000000	0.00000000000000	9.02764200000000	0.00000000000000	
9.25163800000000	-51.04678100000000	709.83366000000001	41.77685900000000	0.01684200000000	0.00000000000000	0.10168700000000	-6.98815400000000	128.53019699999999	15.43101700000000	0.32349900000000	0.00000000000000	-0.07534000000000	0.00000000000000	12.82877800000000	0.00000000000000	0.00000000000000	9.01021000000000	0.00000000000000	
9.25330300000000	-51.21069200000000	705.84563600000001	41.20145800000000	0.01651400000000	0.00000000000000	0.10157700000000	-6.67971100000000	132.65143900000001	15.26981500000000	0.32392800000000	0.00000000000000	-0.07563000000000	0.00000000000000	12.76374400000000	0.00000000000000	0.00000000000000	8.97629800000000	0.00000000000000	
9.25497300000000	-51.39938400000000	701.81430699999999	40.61100400000000	0.01618000000000	0.00000000000000	0.10146200000000	-6.33472300000000	136.80132499999999	15.07137200000000	0.32429600000000	0.00000000000000	-0.07592200000000	0.00000000000000	12.70473600000000	0.00000000000000	0.00000000000000	8.92394200000000	0.00000000000000	
9.25663400000000	-51.61312000000000	697.73973100000001	40.00615400000000	0.01583700000000	0.00000000000000	0.10134100000000	-5.95179800000000	140.96855199999999	14.83288300000000	0.32460500000000	0.00000000000000	-0.07621600000000	0.00000000000000	12.65178300000000	0.00000000000000	0.00000000000000	8.85158700000000	0.00000000000000	
9.25830100000000	-51.85206400000000	693.62177199999996	39.38757800000000	0.01548600000000	0.00000000000000	0.10121500000000	-5.52997800000000	145.14450400000001	14.55235500000000	0.32485600000000	0.00000000000000	-0.07651400000000	0.00000000000000	12.60489700000000	0.00000000000000	0.00000000000000	8.75814600000000	0.00000000000000	
9.25996600000000	-52.11627600000000	689.46009100000003	38.75596400000000	0.01512600000000	0.00000000000000	0.10108300000000	-5.06875000000000	149.32337699999999	14.22862200000000	0.32504700000000	0.00000000000000	-0.07681400000000	0.00000000000000	12.56407000000000	0.00000000000000	0.00000000000000	8.64300400000000	0.00000000000000	
9.26163000000000	-52.40571000000000	685.25415199999998	38.11200900000000	0.01475500000000	0.00000000000000	0.10094700000000	-4.56803500000000	153.50206900000001	13.86130600000000	0.32518200000000	0.00000000000000	-0.07711600000000	0.00000000000000	12.52927200000000	0.00000000000000	0.00000000000000	8.50599900000000	0.00000000000000	
9.26329700000000	-52.72021000000000	681.00322800000004	37.45642400000000	0.01437200000000	0.00000000000000	0.10080500000000	-4.02815100000000	157.67990599999999	13.45073000000000	0.32525900000000	0.00000000000000	-0.07742000000000	0.00000000000000	12.50045800000000	0.00000000000000	0.00000000000000	8.34737400000000	0.00000000000000	
9.26496900000000	-53.05951100000000	676.70639800000004	36.78992500000000	0.01397800000000	0.00000000000000	0.10065900000000	-3.44975700000000	161.85824099999999	12.99780700000000	0.32527900000000	0.00000000000000	-0.07772700000000	0.00000000000000	12.47755900000000	0.00000000000000	0.00000000000000	8.16770700000000	0.00000000000000	
9.26663500000000	-53.42322800000000	672.36255700000004	36.11323900000000	0.01357000000000	0.00000000000000	0.10050700000000	-2.83379400000000	166.03999800000000	12.50391300000000	0.32524300000000	0.00000000000000	-0.07803400000000	0.00000000000000	12.46048800000000	0.00000000000000	0.00000000000000	7.96784500000000	0.00000000000000	
9.26831400000000	-53.81086300000000	667.97041800000000	35.42709300000000	0.01314800000000	0.00000000000000	0.10035100000000	-2.18141800000000	170.22919200000001	11.97075400000000	0.32515300000000	0.00000000000000	-0.07834300000000	0.00000000000000	12.44913900000000	0.00000000000000	0.00000000000000	7.74882300000000	0.00000000000000	
9.26997100000000	-54.22179700000000	663.52852099999996	34.73222000000000	0.01271200000000	0.00000000000000	0.10019100000000	-1.49394500000000	174.43047400000000	11.40024800000000	0.32500700000000	0.00000000000000	-0.07865300000000	0.00000000000000	12.44338300000000	0.00000000000000	0.00000000000000	7.51179900000000	0.00000000000000	
9.27165200000000	-54.65529300000000	659.03523900000005	34.02935100000000	0.01226100000000	0.00000000000000	0.10002700000000	-0.77278800000000	178.64873299999999	10.79441800000000	0.32480800000000	0.00000000000000	-0.07896400000000	0.00000000000000	12.44307500000000	0.00000000000000	0.00000000000000	7.25798900000000	0.00000000000000	
9.27329800000000	-55.11049200000000	654.48878600000000	33.31921900000000	0.01179300000000	0.00000000000000	0.09985800000000	-0.01941600000000	182.88876300000001	10.15530500000000	0.32455700000000	0.00000000000000	-0.07927500000000	0.00000000000000	12.44804700000000	0.00000000000000	0.00000000000000	6.98861900000000	0.00000000000000	
9.27496500000000	-55.58641300000000	649.88722800000005	32.60255400000000	0.01130900000000	0.00000000000000	0.09968600000000	0.76468300000000	187.15501499999999	9.48490600000000	0.32425300000000	0.00000000000000	-0.07958600000000	0.00000000000000	12.45811200000000	0.00000000000000	0.00000000000000	6.70489100000000	0.00000000000000	
9.27663200000000	-56.08195600000000	645.22848899999997	31.88008000000000	0.01080800000000	0.00000000000000	0.09950900000000	1.57802700000000	191.45143600000000	8.78513100000000	0.32389900000000	0.00000000000000	-0.07989600000000	0.00000000000000	12.47306400000000	0.00000000000000	0.00000000000000	6.40795300000000	0.00000000000000	
